<?xml version="1.0" encoding="UTF-8" standalone="no"?>
<!-- Created with Inkscape (http://www.inkscape.org/) -->

<svg
   width="1920"
   height="1080"
   viewBox="0 0 1920 1080"
   version="1.1"
   id="svg5"
   xml:space="preserve"
   inkscape:version="1.2.1 (9c6d41e410, 2022-07-14)"
   sodipodi:docname="desenho-5.svg"
   xmlns:inkscape="http://www.inkscape.org/namespaces/inkscape"
   xmlns:sodipodi="http://sodipodi.sourceforge.net/DTD/sodipodi-0.dtd"
   xmlns="http://www.w3.org/2000/svg"
   xmlns:svg="http://www.w3.org/2000/svg"><sodipodi:namedview
     id="namedview7"
     pagecolor="#ffffff"
     bordercolor="#000000"
     borderopacity="0.25"
     inkscape:showpageshadow="2"
     inkscape:pageopacity="0.0"
     inkscape:pagecheckerboard="0"
     inkscape:deskcolor="#d1d1d1"
     inkscape:document-units="px"
     showgrid="false"
     inkscape:zoom="0.72776573"
     inkscape:cx="1261.3949"
     inkscape:cy="605.27719"
     inkscape:window-width="1920"
     inkscape:window-height="1009"
     inkscape:window-x="-8"
     inkscape:window-y="-8"
     inkscape:window-maximized="1"
     inkscape:current-layer="layer1" /><defs
     id="defs2"><inkscape:path-effect
       effect="bend_path"
       id="path-effect11376"
       is_visible="true"
       lpeversion="1"
       bendpath="m 1382.5261,807.41084 c 192.1564,-59.91755 20.3979,6.03467 192.1564,-59.91755"
       prop_scale="1"
       scale_y_rel="false"
       vertical="false"
       hide_knot="false" /><inkscape:path-effect
       effect="bend_path"
       id="path-effect11370"
       is_visible="true"
       lpeversion="1"
       bendpath="m 1382.5261,807.41084 c 192.1564,-59.91755 20.3979,6.03467 192.1564,-59.91755"
       prop_scale="1"
       scale_y_rel="false"
       vertical="false"
       hide_knot="false" /><inkscape:path-effect
       effect="bend_path"
       id="path-effect8520"
       is_visible="true"
       lpeversion="1"
       bendpath="m 858.91555,863.52103 c -121.29616,32.8439 -283.49701,27.06753 -121.29616,32.8439 162.20084,5.77637 162.20084,-1.36849 162.20084,-1.36849"
       prop_scale="1"
       scale_y_rel="false"
       vertical="false"
       hide_knot="false" /><inkscape:path-effect
       effect="bend_path"
       id="path-effect8514"
       is_visible="true"
       lpeversion="1"
       bendpath="m 858.91555,863.52103 c -121.29616,32.8439 -283.49701,27.06753 -121.29616,32.8439 162.20084,5.77637 162.20084,-1.36849 162.20084,-1.36849"
       prop_scale="1"
       scale_y_rel="false"
       vertical="false"
       hide_knot="false" /><inkscape:path-effect
       effect="bend_path"
       id="path-effect5484"
       is_visible="true"
       lpeversion="1"
       bendpath="M 253.17177,319.23133 C 151.90306,473.49964 56.108339,486.05846 151.90306,473.49964 247.69779,460.94083 359.91447,222.43985 288.75267,319.23133 c -71.16179,96.79148 -5.47398,79.00103 -5.47398,79.00103 0,0 156.00855,-131.34964 49.26586,72.53029 -106.7427,203.87993 -23.26444,-41.58794 -23.26444,-41.58794"
       prop_scale="1"
       scale_y_rel="false"
       vertical="false"
       hide_knot="false" /><inkscape:path-effect
       effect="bend_path"
       id="path-effect5478"
       is_visible="true"
       lpeversion="1"
       bendpath="M 253.17177,319.23133 C 151.90306,473.49964 56.108339,486.05846 151.90306,473.49964 247.69779,460.94083 359.91447,222.43985 288.75267,319.23133 c -71.16179,96.79148 -5.47398,79.00103 -5.47398,79.00103 0,0 156.00855,-131.34964 49.26586,72.53029 -106.7427,203.87993 -23.26444,-41.58794 -23.26444,-41.58794"
       prop_scale="1"
       scale_y_rel="false"
       vertical="false"
       hide_knot="false" /></defs><g
     inkscape:label="Camada 1"
     inkscape:groupmode="layer"
     id="layer1"><ellipse
       style="fill:#0c1a80;fill-opacity:1;fill-rule:evenodd;stroke:#ffffff;stroke-width:0.953083;paint-order:markers stroke fill"
       id="path863"
       cx="1097.5338"
       cy="550.13544"
       rx="377.72839"
       ry="406.4668" /><ellipse
       style="fill:#b8bacd;fill-rule:evenodd;stroke:#ffffff;stroke-width:1.01411;paint-order:markers stroke fill"
       id="path865"
       cx="1097.5338"
       cy="674.64258"
       rx="256.14563"
       ry="244.96082" /><path
       sodipodi:type="spiral"
       style="fill:none;fill-rule:evenodd;stroke:#000000"
       id="path2426"
       sodipodi:cx="1112.5875"
       sodipodi:cy="658.24658"
       sodipodi:expansion="1.0700001"
       sodipodi:revolution="3.6885498"
       sodipodi:radius="379.83279"
       sodipodi:argument="-15.197008"
       sodipodi:t0="0.029909257"
       d="m 1109.4018,649.9513 c 3.2541,-15.40497 24.5985,-10.67168 32.6193,-3.00826 19.0635,18.21429 9.3263,49.00065 -9.5679,63.03225 -31.2894,23.23678 -75.071,7.8927 -94.5571,-23.04451 -27.8438,-44.20631 -6.3823,-102.04083 37.0049,-126.81694 57.2115,-32.67043 129.6135,-4.8234 159.6361,51.29973 37.6298,70.34381 3.227,157.64359 -65.851,192.90946 -83.6032,42.68131 -186.0447,1.59971 -226.56658,-80.6106 -47.80259,-96.98132 0.0541,-214.7591 95.54608,-260.55663 110.4686,-52.98019 243.7453,1.73095 294.841,110.63395 58.2052,124.05579 -3.4281,272.97182 -125.8562,329.38926 -137.7352,63.47124 -302.4144,-5.14323 -364.17719,-141.19881 -68.77366,-151.49964 6.8747,-332.05319 156.65053,-399.18455 165.34316,-74.10882 361.87196,8.62096 434.39446,172.20202 79.4738,179.26041 -10.3808,391.85698 -187.8455,469.79243 -56.4768,24.8024 -118.9114,35.1817 -180.3849,30.3327"
       transform="matrix(0.6669723,0,0,0.62552239,338.34923,253.5528)" /><ellipse
       style="fill:#f0f0f7;fill-opacity:1;fill-rule:evenodd;stroke:#ffffff;stroke-width:0.918991;paint-order:markers stroke fill"
       id="path2593-5"
       cx="1127.652"
       cy="-574.32458"
       rx="84.413506"
       ry="67.70575"
       transform="matrix(0.78492038,0.61959664,-0.64595309,0.76337711,0,0)"
       inkscape:transform-center-x="-53.654355"
       inkscape:transform-center-y="-58.833328" /><ellipse
       style="fill:#f0f0f7;fill-opacity:1;fill-rule:evenodd;stroke:#ffffff;paint-order:markers stroke fill"
       id="path3323"
       cx="502.23807"
       cy="159.42979"
       rx="24.632929"
       ry="0.68424803" /><ellipse
       style="fill:#f0f0f7;fill-opacity:1;fill-rule:evenodd;stroke:#ffffff;paint-order:markers stroke fill"
       id="path3327"
       cx="428.33926"
       cy="323.40094"
       rx="8.2109766"
       ry="3.6696117" /><ellipse
       style="fill:#dc4b0f;fill-opacity:1;fill-rule:evenodd;stroke:#ffffff;stroke-width:1.18414;paint-order:markers stroke fill"
       id="path4858"
       cx="1097.5338"
       cy="429.17471"
       rx="79.403961"
       ry="54.286385"
       inkscape:transform-center-x="-4.1054882"
       inkscape:transform-center-y="8.2109765" /><ellipse
       style="fill:#8d3c1b;fill-opacity:1;fill-rule:evenodd;stroke:#ffffff;stroke-width:1.39985;paint-order:markers stroke fill"
       id="path4914"
       cx="1097.5338"
       cy="429.17471"
       rx="61.522842"
       ry="20.210938"
       inkscape:transform-center-x="-24.63293"
       inkscape:transform-center-y="-9.5794728" /><path
       style="fill:#8d3c1b;fill-opacity:1;fill-rule:evenodd;stroke:#ffffff;paint-order:markers stroke fill"
       d="m 782.77976,964.78974 c 6.0513,3.10928 44.66772,25.5244 0,0"
       id="path5608" /><ellipse
       style="fill:#110101;fill-opacity:1;fill-rule:evenodd;stroke:#ffffff;stroke-width:0.819356;paint-order:markers stroke fill"
       id="path2593-5-7"
       cx="1114.3191"
       cy="-572.39526"
       rx="75.305923"
       ry="60.329712"
       transform="matrix(0.78670097,0.61733425,-0.64818135,0.76148601,0,0)"
       inkscape:transform-center-x="-47.973985"
       inkscape:transform-center-y="-52.294058" /><ellipse
       style="fill:#fffefe;fill-opacity:1;fill-rule:evenodd;stroke:#ffffff;stroke-width:0.424878;paint-order:markers stroke fill"
       id="path2593-5-7-5"
       cx="1068.9626"
       cy="-555.85083"
       rx="39.214653"
       ry="31.152689"
       transform="matrix(0.79919017,0.60107826,-0.66403644,0.74770021,0,0)"
       inkscape:transform-center-x="-25.378559"
       inkscape:transform-center-y="-26.514361" /><ellipse
       style="fill:#fffefe;fill-opacity:1;fill-rule:evenodd;stroke:#ffffff;stroke-width:0.424878;paint-order:markers stroke fill"
       id="path2593-5-7-5-1"
       cx="699.61816"
       cy="-580.72766"
       rx="39.214653"
       ry="31.152689"
       transform="matrix(0.79919017,0.60107826,-0.66403644,0.74770021,0,0)"
       inkscape:transform-center-x="-25.378559"
       inkscape:transform-center-y="-26.514361" /><ellipse
       style="fill:#fdfdfd;fill-opacity:1;fill-rule:evenodd;stroke:#ffffff;stroke-width:0.51041;paint-order:markers stroke fill"
       id="path2593-5-7-1-8"
       cx="767.33087"
       cy="13.54071"
       rx="48.550396"
       ry="36.312946"
       transform="matrix(0.96167271,0.27419994,0.25614363,-0.96663873,0,0)"
       inkscape:transform-center-x="9.2819982"
       inkscape:transform-center-y="41.666652" /><ellipse
       style="fill:#ffffff;fill-opacity:1;fill-rule:evenodd;stroke:#ffffff;stroke-width:0.667713;paint-order:markers stroke fill"
       id="path7514"
       cx="197.43547"
       cy="905.90552"
       rx="89.755913"
       ry="63.768383"
       transform="matrix(0.63916516,-0.76906951,0.89423107,0.44760562,0,0)" /><ellipse
       style="fill:#000000;fill-opacity:1;fill-rule:evenodd;stroke:#ffffff;stroke-width:0.74517;paint-order:markers stroke fill"
       id="path2593-5-7-1-1"
       cx="910.28931"
       cy="-153.63506"
       rx="57.789707"
       ry="65.02404"
       transform="matrix(0.91967667,0.39267649,-0.60500183,0.79622408,0,0)"
       inkscape:transform-center-x="-48.036381"
       inkscape:transform-center-y="-59.974522" /><ellipse
       style="fill:#fefcfc;fill-opacity:1;fill-rule:evenodd;stroke:#ffffff;stroke-width:0.960617;paint-order:markers stroke fill"
       id="path7765"
       cx="789.8623"
       cy="628.26855"
       rx="40.372253"
       ry="29.724413"
       transform="matrix(0.88368609,-0.46808001,0.34041901,0.94027384,0,0)" /><ellipse
       style="fill:#fffefe;fill-opacity:1;fill-rule:evenodd;stroke:#ffffff;stroke-width:0.424878;paint-order:markers stroke fill"
       id="path2593-5-7-5-9"
       cx="1068.9626"
       cy="-555.85083"
       rx="39.214653"
       ry="31.152689"
       transform="matrix(0.79919017,0.60107826,-0.66403644,0.74770021,0,0)"
       inkscape:transform-center-x="-25.378559"
       inkscape:transform-center-y="-26.514361" /><path
       style="fill:#f70000;fill-opacity:1;fill-rule:evenodd;stroke:#ffffff;paint-order:markers stroke fill"
       d="m 756.77833,937.41981 -1.36849,10.94797"
       id="path10987" /><path
       style="opacity:1;fill:#0c4180;fill-opacity:1;fill-rule:evenodd;stroke:#ffffff;stroke-width:1.57653;paint-order:markers stroke fill"
       d="m 945.91958,890.14174 c 2.15748,2.87664 6.02642,5.06189 6.47243,8.62992 1.77898,14.23181 -4.84487,5.10982 -8.62991,10.7874 -2.14826,3.22236 -2.43418,7.40197 -4.31496,10.7874 -2.23633,4.02539 -6.57057,6.66868 -8.62993,10.78741 -0.32161,0.64324 0,1.43832 0,2.15748 -1.43833,3.59581 -2.32243,7.46652 -4.31496,10.78742 -0.37001,0.61666 -1.64897,-0.50854 -2.15748,0 -2.54261,2.5426 -4.47785,5.63802 -6.47244,8.6299 -1.2615,1.89224 -0.896,4.58021 -2.15749,6.47246 -5.29006,7.93508 -9.87945,15.89791 -15.10236,23.73229 -2.55433,3.83149 -5.3738,7.53126 -8.62994,10.78741 -0.50851,0.50852 -1.64894,-0.50854 -2.15746,0 -2.56043,2.5604 -4.81514,8.30137 -6.47246,10.78737 -4.4082,6.6123 -12.10213,9.9447 -17.25985,15.1024 -5.75327,11.5066 2.1575,-2.1575 -6.47244,6.4724 -0.50851,0.5086 0.50853,1.649 0,2.1575 -0.50851,0.5085 -1.64895,-0.5085 -2.15746,0 -1.1371,1.1371 -1.15293,3.0593 -2.1575,4.315 -6.25554,7.8194 -17.45601,20.2672 -25.88977,25.8897 -6.99139,4.661 -14.29133,9.6398 -21.5748,15.1024 -1.62729,1.2205 -2.6225,3.1866 -4.31497,4.315 -0.59838,0.3989 -1.64895,-0.5086 -2.15748,0 -0.50852,0.5085 0.64325,1.8358 0,2.1574 -1.28646,0.6433 -2.95045,-0.4548 -4.31496,0 -3.11392,1.038 -5.35379,5.6535 -8.62993,6.4725 -4.76128,1.1903 -8.52184,0.6831 -12.94487,2.1575 -3.90492,-1.3004 -4.01255,3.495 -6.47245,4.3149 -2.58899,0.863 -6.04095,-0.863 -8.62993,0 -5.74647,-5.5468 -3.96244,4.1387 -4.31496,4.315 -2.43378,1.2169 -8.5649,0.6758 -10.7874,2.1574 -1.66018,1.107 -3.34434,6.4726 -6.47245,6.4726 -0.71915,0 17.25985,-8.63 0,-2.1575 -4.97059,1.864 0.0194,-8.5913 -2.15747,-12.9449 -0.863,-1.726 0.86297,1.726 0,0 -3.30994,-6.6198 -26.55871,-4.5414 -28.26478,-11.3657 -1.32792,-5.3117 21.79234,-19.878 21.79234,-25.3115 v -10.7874 c 0,-0.7192 -0.64325,-2.4791 0,-2.1575 1.81933,0.9097 2.87664,2.8766 4.31496,4.315"
       id="path11206"
       sodipodi:nodetypes="csssscsssssssscssssssssssscscssssssssssc" /><path
       style="fill:#0c4180;fill-opacity:1;fill-rule:evenodd;stroke:#ffffff;stroke-width:1.57653;paint-order:markers stroke fill"
       d="m 1247.6653,890.14173 c -2.1574,2.87664 -6.0264,5.06189 -6.4724,8.62992 -1.779,14.23181 4.8449,5.10982 8.6299,10.7874 2.1483,3.22236 2.4342,7.40197 4.315,10.7874 2.2363,4.02539 6.5706,6.66868 8.6299,10.78741 0.3216,0.64324 0,1.43832 0,2.15748 1.4383,3.59581 2.3224,7.46652 4.315,10.78742 0.37,0.61666 1.6489,-0.50854 2.1575,0 2.5426,2.5426 4.4778,5.63802 6.4724,8.6299 1.2615,1.89224 0.896,4.58021 2.1575,6.47246 5.29,7.93508 9.8794,15.89791 15.1023,23.73229 2.5544,3.83149 5.3738,7.53126 8.63,10.78741 0.5085,0.50852 1.6489,-0.50854 2.1574,0 2.5605,2.5604 4.8152,8.30138 6.4725,10.78738 4.4082,6.6123 12.1021,9.9447 17.2599,15.1024 5.7532,11.5066 -2.1575,-2.1575 6.4724,6.4724 0.5085,0.5085 -0.5085,1.649 0,2.1575 0.5085,0.5085 1.6489,-0.5085 2.1575,0 1.1371,1.1371 1.1529,3.0593 2.1575,4.315 6.2555,7.8194 17.456,20.2672 25.8897,25.8897 6.9914,4.661 14.2914,9.6398 21.5748,15.1024 1.6273,1.2205 2.6225,3.1866 4.315,4.315 0.5984,0.3989 1.6489,-0.5086 2.1575,0 0.5085,0.5085 -0.6433,1.8358 0,2.1574 1.2864,0.6433 2.9504,-0.4548 4.3149,0 3.114,1.038 5.3538,5.6535 8.63,6.4725 4.7612,1.1903 8.5218,0.6831 12.9448,2.1575 3.905,-1.3004 4.0126,3.495 6.4725,4.3149 2.589,0.863 6.0409,-0.863 8.6299,0 5.7465,-5.5468 3.9625,4.1387 4.315,4.315 2.4338,1.2169 8.5649,0.6758 10.7874,2.1574 1.6602,1.107 3.3443,6.4726 6.4724,6.4726 0.7192,0 -17.2598,-8.63 0,-2.1575 4.9706,1.864 -0.019,-8.5913 2.1575,-12.9449 0.863,-1.726 -0.863,1.726 0,0 3.3099,-6.6198 26.5587,-4.5414 28.2648,-11.3657 1.3279,-5.3117 -21.7924,-19.878 -21.7924,-25.3115 v -10.7874 c 0,-0.7192 0.6433,-2.4791 0,-2.1575 -1.8193,0.9097 -2.8766,2.8766 -4.3149,4.315"
       id="path11206-8"
       sodipodi:nodetypes="csssscsssssssscssssssssssscscssssssssssc" /><path
       style="opacity:1;fill:#7fa4ce;fill-opacity:1;fill-rule:evenodd;stroke:#ffffff;stroke-width:1.27512;paint-order:markers stroke fill"
       d="m 1398.3452,777.98177 c 5.1964,-5.82329 13.0195,-2.73702 18.3998,-7.71166 0.4126,-0.38153 -0.3506,-1.57704 0,-2.06338 1.1474,-1.59126 5.6622,-1.07778 7.4389,-2.06338 4.12,-2.28559 9.5175,-5.03113 13.3901,-8.25349 3.3569,-2.79335 8.6106,-8.60496 11.9021,-10.31688 1.3931,-0.7245 3.052,0.65249 4.4633,0 1.6964,-0.7842 2.8642,-3.01771 4.4634,-4.12674 3.1923,-2.21363 7.1954,-2.63858 10.4144,-4.12676 4.1761,-1.93055 10.7282,-5.37596 14.8779,-8.2535 1.5994,-1.10902 2.8031,-3.20575 4.4634,-4.12674 3.3967,-1.8844 8.5202,-1.31253 11.9022,-4.12676 0.9509,-0.79126 0.6219,-3.166 1.4878,-4.12674 1.7318,-1.92149 4.1057,-2.42056 5.9511,-4.12675 7.0473,-6.51579 14.122,-13.65747 20.829,-20.63376 3.4763,-3.61603 8.5116,-4.4917 11.9021,-8.25349 7.6828,-8.52397 15.5485,-19.53746 23.8046,-26.82386 1.7251,-1.5225 4.1757,-0.65641 5.9511,-2.06338 1.8268,-1.44776 2.847,-4.32204 4.4633,-6.19014 3.1786,-3.67352 7.3068,-4.80566 10.4145,-8.25349 5.9358,-6.58577 8.6641,-8.69842 14.8778,-14.44362 1.1671,-1.0791 1.7209,-3.25675 2.9756,-4.12676 13.0839,-9.07301 -1.2809,5.99872 11.9022,-6.19012 7.0926,-6.55777 14.6227,-14.23128 22.3167,-20.63375 4.5053,-3.74897 10.9889,-6.72126 14.8778,-10.31686 1.1671,-1.07911 1.7728,-3.12588 2.9756,-4.12676 3.6881,-3.06899 8.1851,-4.81672 11.9021,-8.2535 2.0026,-1.85147 9.43,-10.66583 11.9024,-12.38024 1.8288,-1.26823 4.0113,-1.1666 5.9511,-2.06337 4.9195,-2.27427 1.4971,-2.65851 7.4388,-6.19014 1.8796,-1.11709 4.1224,-0.79513 5.9512,-2.06338 1.2546,-0.86999 1.6863,-3.36042 2.9756,-4.12673 2.3243,-1.3815 5.1145,-0.68188 7.4389,-2.06337 1.2892,-0.76634 1.6863,-3.36044 2.9755,-4.12676 29.2688,-17.39674 -15.1981,14.6658 14.8779,-6.19013 3.8157,-2.64597 6.5987,-7.67088 10.4144,-10.31687 1.3308,-0.92277 3.1326,0.92276 4.4634,0 4.8022,-3.33002 9.6045,-7.87909 14.8778,-10.31687 3.4601,-1.59964 24.9653,-5.73674 26.78,-8.25349 3.5128,-4.87183 -8.2984,1.08512 2.9755,-4.12675 1.8819,-0.87001 4.006,0.53954 5.9512,0 1.0874,-0.30163 1.8882,-1.76176 2.9755,-2.06338 4.5181,-1.25321 10.4982,2.02469 14.8778,0 0.6654,-0.30759 0.8225,-1.75578 1.4878,-2.06338 2.6787,-1.23838 6.2338,-0.81846 8.9267,-2.06338 3.2507,-1.50281 5.3662,-3.13918 8.9266,-4.12674 1.459,-0.40466 3.1327,0.92277 4.4634,0 0.7023,-0.48698 5.7688,-5.80408 7.439,-6.19013 1.3906,-0.32143 14.5238,-1.70276 16.3655,0 5.8053,5.36747 1.4705,1.99185 2.9756,8.2535 0.8199,3.41135 5.2088,6.70911 5.9511,8.25351 0.5502,1.14454 -0.3137,2.82175 0,4.12675 1.1552,4.80602 4.2017,9.59117 5.9511,14.44362 1.6548,4.58991 1.4674,12.35189 4.4634,16.50698 0.3507,0.48635 1.1371,-0.48633 1.4878,0 0.7558,1.0483 -0.2135,9.13327 0,10.31689 2.153,11.94457 1.4876,-5.42386 1.4876,10.31687 0,6.04029 1.3562,14.9914 0,20.63374 -1.6185,6.73448 -5.4594,22.01538 -8.9266,26.82388 -7.6031,10.54462 2.0751,-8.65168 -5.9511,6.19012 -3.522,6.51288 1.1181,2.5761 -4.4633,10.31687 -0.3507,0.48634 -1.1371,-0.48634 -1.4878,0 -3.2818,4.5515 -5.038,10.39869 -8.9267,14.44363 -1.4305,1.48792 -3.1989,2.37322 -4.4633,4.12674 -0.3507,0.48635 0.275,1.4911 0,2.06338 -1.1671,2.42797 -2.9756,4.12675 -4.4633,6.19012 -1.7535,2.43171 -2.71,5.82178 -4.4633,8.25351 -0.3508,0.48633 -1.1372,-0.48635 -1.4879,0 -1.2643,1.75352 -1.7112,4.43659 -2.9755,6.19011 -0.7842,1.0875 -2.1916,0.9759 -2.9757,2.06337 -0.7841,1.08751 -0.8726,2.84711 -1.4877,4.12676 -4.7048,9.78743 -16.6681,22.28905 -23.8045,28.88725 -3.7945,3.50846 -7.9433,5.50823 -11.9022,8.25349 -4.1876,2.90395 -7.4518,8.00228 -11.9022,10.31688 -5.6882,2.95828 -12.8154,5.07655 -17.8535,10.31688 -1.1222,1.16721 -1.8084,3.04764 -2.9755,4.12674 -1.3073,1.20872 -12.6054,7.70942 -16.3657,10.31688 -2.9754,2.06338 0,-4.12676 -4.4633,0 -0.9226,0.85311 -0.7035,3.03925 -1.4877,4.12675 -1.4352,1.9906 -12.7049,5.1856 -14.8778,6.19011 -2.104,0.97269 -3.8471,3.15408 -5.9511,4.12676 -0.9409,0.43501 -2.0547,-0.51088 -2.9756,0 -1.6602,0.92099 -2.8641,3.01772 -4.4633,4.12675 -7.1915,4.98689 -1.7648,0.4895 -7.4389,2.06337 -4.027,-3.50685 -3.8471,3.15407 -5.9512,4.12675 -0.9409,0.435 -2.0546,-0.51088 -2.9756,0 -1.6601,0.92101 -2.744,3.44548 -4.4633,4.12676 -1.9073,0.75579 -4.0267,-0.66727 -5.9512,0 -2.1516,0.746 -3.8185,3.28172 -5.9509,4.12674 -1.4305,0.56685 -3.0521,-0.65249 -4.4634,0 -0.4706,0.21751 0.4252,1.7095 0,2.06337 -5.019,4.17646 -11.2545,6.06372 -16.3656,10.31689 -8.0653,6.71127 -15.1279,11.6936 -23.8046,16.50699 -3.8291,2.12423 -9.3321,1.87572 -13.3899,4.12674 -0.6512,0.36126 -0.8,1.87262 -1.4879,2.06338 -1.9451,0.53955 -4.0058,-0.53954 -5.9511,0 -1.7533,0.48634 -2.7285,3.52529 -4.4634,4.12676 -3.6964,1.28163 -8.2615,0.38037 -11.9021,2.06337 -0.5234,0.24194 -7.3001,4.08827 -7.439,4.12674 -5.1818,1.43734 -11.2415,-1.77659 -16.3655,0 -2.1517,0.74602 -3.7995,3.38075 -5.9511,4.12675 -1.9246,0.66726 -3.9874,-0.38907 -5.9512,0 -4.6564,-3.67746 -6.8741,3.14477 -10.4144,4.12676 -4.2792,1.18696 -9.1321,-1.31229 -13.3901,0 -3.0618,0.94364 -5.8838,3.07172 -8.9267,4.12674 -2.8867,1.00089 -5.981,-0.58361 -8.9266,0 -5.5722,1.104 -8.6289,3.16382 -14.8778,4.12675 -8.6354,1.33071 -43.523,1.63225 -50.5845,0 -2.2243,-0.51413 -5.2873,-3.13209 -7.4389,-4.12675 -4.7868,-2.21284 -11.3923,-0.33904 -16.3656,-2.06337 -3.0738,-1.06572 -5.9107,-2.73248 -8.9268,-4.12675 -2.6779,-1.23802 -6.2486,1.23802 -8.9266,0 -4.4195,-2.04309 -8.0563,-3.52322 -11.9023,-6.19013 -0.887,-0.61516 -2.0884,0.61518 -2.9755,0 -1.2547,-0.86998 -1.721,-3.25676 -2.9755,-4.12674 -0.8872,-0.61518 -2.2742,0.97268 -2.9757,0 -0.3506,-0.48634 0.3508,-1.57704 0,-2.06337 -0.7012,-0.97269 -2.2742,0.97268 -2.9755,0 -0.3507,-0.48635 0.3508,-1.57704 0,-2.06338 -0.3507,-0.48635 -1.0442,0.30759 -1.4878,0 -6.1917,-4.29363 1.5904,0.1425 -1.4877,-4.12676 -0.2308,-0.31994 -1.0587,0.48483 -0.8058,0.77061"
       id="path11234" /><path
       style="opacity:1;fill:#5a87bb;fill-opacity:1;fill-rule:evenodd;stroke:#ffffff;paint-order:markers stroke fill"
       d="m 1398.3452,777.98177 c 0.1522,3.11983 -0.7068,6.46069 0.4566,9.3595 0.1553,0.38708 2.3812,-1.85031 6.8703,-2.74813 0.75,-0.14999 12.0916,-2.61061 12.3666,-2.74814 0.4097,-0.20483 -0.4096,-1.16923 0,-1.37407 1.5996,-0.79977 6.4708,0 8.2444,0 7.9914,0 38.6428,3.60791 45.3443,1.37407 1.3684,-0.45612 2.7539,-2.29202 4.1222,-2.74814 0.8691,-0.28968 1.986,0.50813 2.7482,0 0.8521,-0.5681 0.5219,-2.18003 1.374,-2.74813 0.7622,-0.50813 1.986,0.50813 2.7482,0 0.8521,-0.56811 0.458,-2.29012 1.374,-2.74814 1.229,-0.6145 2.7892,0.33326 4.1222,0 3.02,-0.755 16.2842,-9.024 19.237,-10.99255 2.2211,-1.48073 5.7127,-3.27831 8.2444,-4.1222 1.2367,-0.41223 2.8855,0.41222 4.1222,0 8.2354,-2.74513 -3.4512,0.35155 5.4963,-4.12221 2.0889,-1.04445 4.7814,-0.32962 6.8703,-1.37407 3.7763,-1.88812 6.3704,-4.43427 9.6185,-6.87034 3.4343,-2.5757 10.7732,-4.64471 13.7407,-6.87034 0.8193,-0.61451 0.916,-1.8321 1.3741,-2.74814 1.374,-0.91605 2.6883,-1.9288 4.1222,-2.74814 2.6676,-1.52439 5.6097,-2.54141 8.2444,-4.1222 1.9637,-1.17826 3.4479,-3.09804 5.4962,-4.12221 0.4097,-0.20483 0.9161,0 1.3741,0 1.8321,-0.91605 3.7057,-1.75338 5.4963,-2.74814 6.0551,-3.36393 11.6805,-7.90138 17.8629,-10.99255 2.591,-1.29548 5.5548,-1.67229 8.2444,-2.74813 3.7474,-1.49898 6.8531,-4.66838 10.9925,-5.49628 1.7966,-0.3593 3.8576,0.81934 5.4963,0 5.4042,-2.70208 2.4882,-2.97095 8.2444,-4.1222 0.8983,-0.17965 1.9288,0.40967 2.7482,0 1.1587,-0.57936 1.8321,-1.83209 2.7481,-2.74814 1.3741,-0.91605 2.6451,-2.0096 4.1222,-2.74814 10.6267,-5.31333 21.675,-11.24382 31.6036,-17.86289 2.7221,0.13716 0.6499,-2.02394 1.3741,-2.74813 1.3353,-1.33536 3.9854,-0.24099 5.4962,-1.37407 0.8194,-0.61451 0.6499,-2.02394 1.3741,-2.74814 2.8422,-2.8422 8.0383,-3.91607 10.9925,-6.87034 0.7242,-0.7242 0.6499,-2.02394 1.3741,-2.74814 2.6111,-2.61113 6.6136,-3.34994 9.6185,-5.49627 1.0733,-0.76665 5.871,-4.4969 6.8703,-5.49628 0.3239,-0.32387 -0.3238,-1.0502 0,-1.37407 1.0382,-1.0382 4.1222,-1.23069 4.1222,-1.37407 0,-1.84264 -3.7091,5.08325 -8.2444,9.61848 -2.4839,2.48395 -0.8212,3.56936 -4.1222,6.87035 -0.3238,0.32387 -1.1692,-0.40967 -1.374,0 -0.4097,0.81933 0.4096,1.9288 0,2.74813 -1.6757,3.35132 -11.837,12.10181 -15.1148,13.74069 -2.2688,1.13439 -5.9066,0.59481 -8.2444,1.37407 -2.7944,0.93146 -6.5344,3.50538 -9.6185,4.1222 -2.2456,0.44913 -4.9648,-1.27032 -6.8703,0 -0.8522,0.56811 -0.6499,2.02394 -1.3741,2.74814 -0.7836,0.78362 -4.4888,0.70243 -5.4963,1.37407 -3.0463,2.03086 -3.001,4.37505 -4.1222,5.49627 -0.5886,0.58858 -8.1545,6.69061 -8.2444,6.87035 -0.2048,0.40966 0.3239,1.05019 0,1.37406 -0.5842,0.58424 -5.9667,3.51982 -6.8703,4.12221 -2.5279,1.68523 -4.1585,5.51439 -6.8704,6.87034 -0.4096,0.20484 -0.916,0 -1.374,0 -1.3741,1.37407 -2.6048,2.90828 -4.1223,4.12221 -0.659,0.52727 -6.6196,3.87147 -6.8703,4.1222 -0.8442,0.84419 -0.9078,3.20203 -2.7481,4.12221 -3.7215,1.86073 -8.1759,3.40091 -12.3666,5.49627 -1.1831,0.59151 -2.8757,2.43651 -4.1223,2.74814 -1.333,0.33326 -2.8464,-0.51031 -4.1222,0 -1.2028,0.48113 -1.8321,1.83209 -2.7481,2.74814 -1.3741,0 -2.7668,-0.2259 -4.1222,0 -12.3741,2.06235 3.1834,0.1007 -6.8703,4.1222 -1.2758,0.51032 -2.8187,-0.43451 -4.1223,0 -0.4345,0.14484 0.3811,1.12001 0,1.37407 -2.5564,1.70432 -5.4962,2.74814 -8.2444,4.12221 -2.6339,1.31694 -6.854,0.45259 -9.6184,1.37407 -3.1986,1.06617 -7.8451,3.92252 -10.9926,5.49627 -2.6163,1.30817 -6.7122,1.77939 -9.6185,2.74814 -2.487,-0.82819 -2.5555,2.22591 -4.1222,2.74814 -2.4733,0.82444 -5.7711,-0.82445 -8.2444,0 -0.4345,0.14483 0.3239,1.05019 0,1.37406 -0.9652,0.96518 -8.3109,2.81462 -9.6185,4.12221 -0.7242,0.7242 -0.6498,2.02394 -1.374,2.74814 -0.3239,0.32387 -0.9644,-0.20484 -1.3741,0 -2.1045,1.05224 -1.0745,2.44861 -2.7481,4.1222 -0.3239,0.32387 -0.9644,-0.20483 -1.3741,0 -1.8404,0.92018 -1.904,3.27802 -2.7481,4.12221 -0.3239,0.32387 -0.9644,-0.20484 -1.3741,0 -2.0454,1.02267 -3.664,4.27475 -5.4963,5.49627 -0.8894,0.59291 -3.2328,0.78116 -4.1222,1.37407 -2.6437,1.76247 -4.3243,4.96081 -6.8703,6.87034 -1.3212,0.99086 -2.6452,2.0096 -4.1222,2.74814 -0.8194,0.40967 -2.1004,-0.64774 -2.7482,0 -0.3239,0.32387 0.4097,1.16923 0,1.37407 -1.8977,0.94886 -4.8256,0.69248 -6.8703,1.37407 -0.8386,0.27951 -3.2837,2.46862 -4.1222,2.74813 -2.0578,0.68593 -4.7623,-0.527 -6.8704,0 -15.3432,3.83582 -36.1381,1.37407 -52.2146,1.37407 -1.0968,0 -17.5413,-0.27077 -17.8629,0 -3.3328,2.80645 -6.2702,6.05135 -9.4053,9.07702"
       id="path15918" /></g></svg>
